PathFileType	4	(X/Y/Z)	C:/Users/beibeiliu/ov580/test_trc/User1\sequence.25_training_dense_left.trc
DataRate	CameraRate	NumFrames	NumMarkers	Units	OrigDataRate	OrigDataStartFrame	OrigNumFrames
120	120	9	19	mm	120	61	242
Frame#	Time	ThumbCMC			ThumbMCP			ThumbIP			ThumbTip			IndexMCP			IndexPIP			IndexTip			MiddleMCP			MiddlePIP			MiddleTip			RingMCP			RingPIP			RingTip			PinkyMCP			PinkyPIP			PinkyTip			BackHand1			BackHand2			BackHand3	
		X0	Y0	Z0	X1	Y1	Z1	X2	Y2	Z2	X3	Y3	Z3	X4	Y4	Z4	X5	Y5	Z5	X6	Y6	Z6	X7	Y7	Z7	X8	Y8	Z8	X9	Y9	Z9	X10	Y10	Z10	X11	Y11	Z11	X12	Y12	Z12	X13	Y13	Z13	X14	Y14	Z14	X15	Y15	Z15	X16	Y16	Z16	X17	Y17	Z17	X18	Y18	Z18	
60	0.5	-207.468	19.8848	50.8427	-201.916	21.1653	13.0718	-197.379	6.61751	-17.5217	-180.322	-8.47131	-29.7758	-221.44	-31.3426	-16.2006	-220.932	-41.6754	-39.358	-219.39	-58.8593	-62.71	-197.245	-30.9622	-32.1779	-187.444	-19.972	-55.4986	-175.351	0.64359	-83.5361	-166.084	-22.3695	-22.334	-153.277	10.3447	-23.3122	-155.162	27.4137	2.60854	-149.248	-28.2586	-7.33391	-142.571	1.1295	-11.2285	-153.499	19.5324	13.379	-179.567	-44.5928	34.9784	-176.548	-35.3405	73.657	-205.843	-25.3119	52.2364	
61	0.508333	-210.962	22.2309	51.9321	-207.758	25.4899	13.2457	-201.786	11.8183	-13.772	-177.719	-9.04121	-25.3166	-224.878	-30.1139	-13.1191	-226.973	-41.0499	-37.0065	-230.147	-53.8516	-58.755	-201.007	-27.5232	-31.6655	-192.115	-15.9929	-57.5876	-182.036	1.12559	-82.5037	-169.524	-22.9612	-21.0387	-160.492	10.8224	-26.7588	-156.477	27.8648	2.54106	-149.949	-26.1172	-9.27773	-148.56	4.3809	-11.9125	-160.239	18.4152	13.2862	-180.982	-42.3749	35.6871	-178.112	-33.5198	71.0437	-213.856	-20.9817	56.6978	
62	0.516667	-213.414	26.8216	54.0319	-210.816	27.273	11.4738	-199.684	13.3204	-9.5808	-173.545	-8.1695	-10.5524	-234.069	-26.3911	-13.6685	-236.772	-35.8752	-33.5263	-236.345	-51.934	-58.2986	-208.724	-24.2301	-28.7699	-203.09	-11.2928	-57.7661	-189.283	0.996293	-81.8097	-178.144	-19.2323	-23.447	-169.053	11.6264	-30.5185	-162.743	30.138	0.170385	-159.077	-24.2317	-9.32754	-154.198	6.0528	-13.6276	-163.209	23.1989	14.586	-188.879	-37.6877	41.3454	-184.115	-28.6362	72.3562	-216.159	-16.8469	56.4731	
63	0.525	-215.199	30.6856	54.3415	-213.432	33.9318	12.8186	-201.707	15.4467	-8.50818	-176.799	-4.73435	-5.38576	-241.737	-18.6015	-10.7841	-245.481	-30.5874	-34.4823	-247.65	-43.972	-57.4066	-216.038	-19.3435	-29.5711	-212.235	-8.37313	-54.3613	-201.782	7.53353	-81.8996	-188.686	-17.3267	-21.3401	-175.234	15.4819	-29.8606	-166.496	31.1926	-2.4248	-170.206	-22.8089	-8.65606	-159.841	6.9378	-15.2485	-170.419	24.0659	12.9484	-196.791	-32.6556	39.7679	-185.749	-29.3542	74.3519	-223.396	-12.6491	56.2792	
64	0.533333	-216.731	33.3863	55.7046	-215.723	42.8122	16.3725	-210.539	21.4399	-12.832	-187.084	1.71276	-9.16654	-249.32	-11.9193	-9.88254	-255.489	-22.785	-33.0069	-258.959	-32.0235	-53.1344	-228.408	-13.1674	-27.3968	-220.489	-3.07865	-56.3794	-208.284	10.8021	-82.5071	-193.888	-12.873	-23.735	-178.934	17.1605	-29.386	-172.461	33.8284	0.305657	-178.314	-18.3463	-9.58103	-167.096	9.60378	-14.6292	-168.676	26.4188	13.0064	-203.204	-30.3184	39.812	-193.482	-24.0789	72.9725	-226.77	-4.40558	57.6803	
65	0.541667	-216.278	40.9194	56.808	-218.245	46.4133	16.9008	-217.186	37.4926	-7.57755	-203.209	11.0358	-20.9825	-257.296	2.72392	-2.62769	-264.837	-10.0855	-28.5945	-272.485	-23.012	-51.385	-237.991	-4.13443	-25.7305	-228.442	2.40983	-54.5914	-215.638	12.3781	-79.0172	-204.496	-4.19001	-21.7974	-182.489	21.7686	-25.3173	-172.089	33.3656	3.12881	-185.915	-14.9093	-11.2212	-169.69	8.39011	-13.2449	-177.183	27.5032	13.8342	-211.943	-24.0943	41.95	-202.908	-24.3104	71.9014	-231.145	0.799802	60.4475	
66	0.55	-214.403	48.6003	56.5458	-213.749	56.2022	18.8688	-219.103	44.2415	-9.29498	-213.388	20.9114	-30.6072	-263.478	18.3248	-0.931228	-274.444	7.8262	-24.385	-284.722	-3.91495	-47.2539	-244.29	5.11206	-25.6698	-239.644	13.8483	-49.609	-221.425	21.6931	-80.463	-210.052	-0.246433	-20.7304	-182.795	19.8051	-24.7097	-172.686	33.0945	1.73585	-196.105	-17.6181	-8.18696	-178.524	7.18747	-12.1153	-173.673	24.1971	15.1111	-224.681	-17.6807	42.9209	-212.407	-17.6787	72.0277	-237.497	11.5758	61.9955	
67	0.558333	-211.36	53.1133	57.3274	-207.611	58.3818	19.4424	-217.015	50.2764	-10.4902	-217.841	25.9108	-28.9536	-264.574	30.9065	-0.802243	-277.859	26.5506	-21.9221	-292.484	17.4681	-41.8783	-248.913	16.3899	-22.9402	-241.641	22.9778	-51.844	-226.406	26.9875	-78.4896	-217.241	4.2779	-19.5219	-185.574	21.1595	-21.7505	-172.653	30.1655	5.26201	-203.081	-13.1107	-10.3735	-181.097	6.41896	-9.47589	-179.844	22.6497	19.1288	-235.532	-11.7209	42.4212	-222.892	-11.3932	71.5156	-240.504	21.2317	61.5298	
68	0.566667	-204.596	53.5658	58.8726	-201.201	59.6529	19.4824	-211.567	51.5044	-5.5276	-217.776	33.339	-30.4843	-265.783	46.8512	-1.26573	-281.982	43.0362	-22.0313	-295.088	34.7833	-39.1666	-253.457	27.9522	-22.3833	-244.95	31.6208	-48.7325	-229.824	37.3107	-76.778	-225.101	10.5223	-17.9119	-190.517	18.6107	-22.5357	-172.119	20.9989	2.57062	-213.548	-13.4171	-9.62152	-188.943	5.01484	-9.85581	-183.287	21.5715	15.879	-244.579	-2.10636	39.3908	-232.947	-9.66203	73.1242	-240.951	28.0228	60.7306	
